<svg xmlns="http://www.w3.org/2000/svg" xmlns:xlink="http://www.w3.org/1999/xlink" viewBox="0,0,256,256" width="50px" height="50px" fill-rule="nonzero"><g fill="#ff0000" fill-rule="nonzero" stroke="none" stroke-width="1" stroke-linecap="butt" stroke-linejoin="miter" stroke-miterlimit="10" stroke-dasharray="" stroke-dashoffset="0" font-family="none" font-weight="none" font-size="none" text-anchor="none" style="mix-blend-mode: normal"><g transform="scale(5.12,5.12)"><path d="M25,7c-10.49219,0 -19,8.50781 -19,19c0,10.49219 8.50781,19 19,19c10.49219,0 19,-8.50781 19,-19c0,-10.49219 -8.50781,-19 -19,-19zM8.34375,9c-0.21875,0.03906 -0.41406,0.14844 -0.5625,0.3125c-4.18359,4.32031 -6.78125,10.20313 -6.78125,16.6875c0,5.49219 1.85938,10.57813 4.96875,14.625c0.34375,0.44141 0.98047,0.51563 1.42188,0.17188c0.44141,-0.34375 0.51563,-0.98047 0.17188,-1.42187c-2.85156,-3.71094 -4.5625,-8.33203 -4.5625,-13.375c0,-5.95312 2.37891,-11.35156 6.21875,-15.3125c0.30469,-0.30859 0.375,-0.77734 0.17578,-1.16016c-0.19922,-0.38281 -0.625,-0.59766 -1.05078,-0.52734zM41.3125,9c-0.36328,0.06641 -0.66406,0.32813 -0.77344,0.68359c-0.11328,0.35547 -0.01953,0.74219 0.24219,1.00391c3.83984,3.96094 6.21875,9.35938 6.21875,15.3125c0,5.04297 -1.71094,9.66406 -4.5625,13.375c-0.34375,0.44141 -0.26953,1.07813 0.17188,1.42188c0.44141,0.34375 1.07813,0.26953 1.42188,-0.17187c3.10938,-4.04687 4.96875,-9.13281 4.96875,-14.625c0,-6.48437 -2.59766,-12.36719 -6.78125,-16.6875c-0.23047,-0.25 -0.57031,-0.37109 -0.90625,-0.3125zM24,14h2c0.55078,0 1,0.44922 1,1v13c0,0.55078 -0.44922,1 -1,1h-2c-0.55078,0 -1,-0.44922 -1,-1v-13c0,-0.55078 0.44922,-1 1,-1zM24,33h2c0.55078,0 1,0.44922 1,1v2c0,0.55078 -0.44922,1 -1,1h-2c-0.55078,0 -1,-0.44922 -1,-1v-2c0,-0.55078 0.44922,-1 1,-1z"></path></g></g></svg>